<svg width="38" height="38" viewBox="0 0 38 38" fill="none" xmlns="http://www.w3.org/2000/svg">
<path opacity="0.1" fill-rule="evenodd" clip-rule="evenodd" d="M19.2222 36.4531C29.0406 36.4531 37 28.5167 37 18.7266C37 8.93645 29.0406 1 19.2222 1C9.40383 1 1.44445 8.93645 1.44445 18.7266C1.44445 28.5167 9.40383 36.4531 19.2222 36.4531Z" stroke="#0A142F" stroke-width="1.5"/>
<path d="M20.8408 14.1895H22.4747C22.625 14.1895 22.747 14.0749 22.747 13.9337V12.3984C22.747 12.2572 22.625 12.1426 22.4747 12.1426H20.8408C19.1895 12.1426 17.8453 13.405 17.8453 14.9571V16.7482H15.9391C15.7888 16.7482 15.6668 16.8628 15.6668 17.0041V18.5393C15.6668 18.6805 15.7888 18.7952 15.9391 18.7952H17.8453V24.1684C17.8453 24.3096 17.9673 24.4243 18.1176 24.4243H19.7515C19.9019 24.4243 20.0239 24.3096 20.0239 24.1684V18.7952H21.9301C22.0472 18.7952 22.1512 18.7245 22.1888 18.6201L22.7334 17.0849C22.7612 17.0071 22.747 16.9212 22.6958 16.8541C22.6441 16.7876 22.5624 16.7482 22.4747 16.7482H20.0239V14.9571C20.0239 14.5339 20.3904 14.1895 20.8408 14.1895Z" fill="#0A142F"/>
</svg>
