<svg width="37" height="37" viewBox="0 0 37 37" fill="none" xmlns="http://www.w3.org/2000/svg">
<path opacity="0.1" fill-rule="evenodd" clip-rule="evenodd" d="M18.5 36C28.165 36 36 28.165 36 18.5C36 8.83502 28.165 1 18.5 1C8.83502 1 1 8.83502 1 18.5C1 28.165 8.83502 36 18.5 36Z" stroke="#0A142F" stroke-width="1.5"/>
<path d="M14.4837 14.9671C15.303 14.9671 15.9672 14.3029 15.9672 13.4835C15.9672 12.6642 15.303 12 14.4837 12C13.6643 12 13.0001 12.6642 13.0001 13.4835C13.0001 14.3029 13.6643 14.9671 14.4837 14.9671Z" fill="#0A142F"/>
<path d="M15.7198 15.958H13.2473C13.1108 15.958 13 16.0688 13 16.2053V23.623C13 23.7595 13.1108 23.8703 13.2473 23.8703H15.7198C15.8563 23.8703 15.9671 23.7595 15.9671 23.623V16.2053C15.9671 16.0688 15.8563 15.958 15.7198 15.958Z" fill="#0A142F"/>
<path d="M23.0882 15.5469C22.0314 15.1849 20.7096 15.5029 19.9168 16.0731C19.8896 15.9667 19.7927 15.8876 19.6775 15.8876H17.2049C17.0684 15.8876 16.9577 15.9984 16.9577 16.1349V23.5526C16.9577 23.6891 17.0684 23.7999 17.2049 23.7999H19.6775C19.814 23.7999 19.9248 23.6891 19.9248 23.5526V18.2217C20.3243 17.8775 20.8391 17.7678 21.2604 17.9468C21.6689 18.1194 21.9028 18.5407 21.9028 19.102V23.5526C21.9028 23.6891 22.0136 23.7999 22.1501 23.7999H24.6227C24.7592 23.7999 24.8699 23.6891 24.8699 23.5526V18.604C24.8417 16.572 23.8858 15.8199 23.0882 15.5469Z" fill="#0A142F"/>
</svg>
