<svg width="119" height="24" viewBox="0 0 119 24" fill="none" xmlns="http://www.w3.org/2000/svg">
<path d="M0 24V0H12.2743C15.4286 0 17.7829 0.582857 19.3371 1.74857C20.8914 2.89143 21.6686 4.4 21.6686 6.27429C21.6686 7.50857 21.3371 8.59429 20.6743 9.53143C20.0343 10.4457 19.12 11.1771 17.9314 11.7257C16.7657 12.2514 15.3714 12.5143 13.7486 12.5143L14.4343 10.8686C16.1257 10.8686 17.6 11.1314 18.8571 11.6571C20.1143 12.16 21.0857 12.9029 21.7714 13.8857C22.48 14.8457 22.8343 16.0229 22.8343 17.4171C22.8343 19.4971 21.9886 21.12 20.2971 22.2857C18.6286 23.4286 16.1829 24 12.96 24H0ZM6.72 19.0971H12.4114C13.5771 19.0971 14.4571 18.9029 15.0514 18.5143C15.6686 18.1029 15.9771 17.4857 15.9771 16.6629C15.9771 15.84 15.6686 15.2343 15.0514 14.8457C14.4571 14.4343 13.5771 14.2286 12.4114 14.2286H6.24V9.53143H11.3829C12.5257 9.53143 13.3829 9.33714 13.9543 8.94857C14.5257 8.56 14.8114 7.97714 14.8114 7.2C14.8114 6.42286 14.5257 5.85143 13.9543 5.48571C13.3829 5.09714 12.5257 4.90286 11.3829 4.90286H6.72V19.0971Z" fill="#F29559"/>
<path d="M32.5904 9.29143H43.7333V14.3657H32.5904V9.29143ZM33.0704 18.7543H45.619V24H26.3504V0H45.1733V5.24571H33.0704V18.7543Z" fill="#F29559"/>
<path d="M55.6262 9.29143H66.769V14.3657H55.6262V9.29143ZM56.1062 18.7543H68.6547V24H49.3862V0H68.209V5.24571H56.1062V18.7543Z" fill="#F29559"/>
<path d="M72.4219 24V0H79.2104V18.6171H90.6619V24H72.4219Z" fill="#F29559"/>
<path d="M93.3482 24V0H104.697C107.348 0 109.68 0.491429 111.691 1.47429C113.702 2.45714 115.268 3.84 116.388 5.62286C117.531 7.40571 118.103 9.53143 118.103 12C118.103 14.4457 117.531 16.5714 116.388 18.3771C115.268 20.16 113.702 21.5429 111.691 22.5257C109.68 23.5086 107.348 24 104.697 24H93.3482ZM100.137 18.5829H104.422C105.794 18.5829 106.982 18.3314 107.988 17.8286C109.017 17.3029 109.817 16.5486 110.388 15.5657C110.96 14.56 111.245 13.3714 111.245 12C111.245 10.6057 110.96 9.41714 110.388 8.43429C109.817 7.45143 109.017 6.70857 107.988 6.20571C106.982 5.68 105.794 5.41714 104.422 5.41714H100.137V18.5829Z" fill="#F29559"/>
</svg>
