<svg width="20" height="20" viewBox="0 0 20 20" fill="none" xmlns="http://www.w3.org/2000/svg">
<g clip-path="url(#clip0_2069_1089)">
<path d="M16.3638 14.4698C16.0709 14.1769 15.596 14.1769 15.3031 14.4697C15.0102 14.7626 15.0102 15.2375 15.3031 15.5304L16.3638 14.4698ZM18.6364 18.8637C18.9293 19.1566 19.4041 19.1566 19.697 18.8637C19.9899 18.5708 19.9899 18.0959 19.697 17.803L18.6364 18.8637ZM15.3031 15.5304L18.6364 18.8637L19.697 17.803L16.3638 14.4698L15.3031 15.5304ZM9.16675 15.0833C5.43883 15.0833 2.41675 12.0613 2.41675 8.33334H0.916748C0.916748 12.8897 4.6104 16.5833 9.16675 16.5833V15.0833ZM15.9167 8.33334C15.9167 12.0613 12.8947 15.0833 9.16675 15.0833V16.5833C13.7231 16.5833 17.4167 12.8897 17.4167 8.33334H15.9167ZM9.16675 1.58334C12.8947 1.58334 15.9167 4.60541 15.9167 8.33334H17.4167C17.4167 3.77699 13.7231 0.0833359 9.16675 0.0833359V1.58334ZM9.16675 0.0833359C4.6104 0.0833359 0.916748 3.77699 0.916748 8.33334H2.41675C2.41675 4.60541 5.43883 1.58334 9.16675 1.58334V0.0833359Z" fill="#202C39"/>
</g>
<defs>
<clipPath id="clip0_2069_1089">
<rect width="20" height="20" fill="white"/>
</clipPath>
</defs>
</svg>
