<svg width="37" height="37" viewBox="0 0 37 37" fill="none" xmlns="http://www.w3.org/2000/svg">
<path opacity="0.1" fill-rule="evenodd" clip-rule="evenodd" d="M18.5 36C28.165 36 36 28.165 36 18.5C36 8.83502 28.165 1 18.5 1C8.83502 1 1 8.83502 1 18.5C1 28.165 8.83502 36 18.5 36Z" stroke="#0A142F" stroke-width="1.5"/>
<path d="M24.1828 14.2647C24.1013 14.1729 23.97 14.1498 23.8623 14.2064C23.7953 14.2416 23.6693 14.2878 23.5197 14.3334C23.7084 14.0762 23.8601 13.7882 23.9271 13.5293C23.9561 13.4177 23.9137 13.3001 23.8215 13.2336C23.7293 13.1677 23.6066 13.1677 23.5144 13.2336C23.3691 13.3375 22.668 13.6497 22.2247 13.7508C21.2228 12.8511 20.0569 12.7577 18.845 13.4831C17.8597 14.0729 17.6453 15.2721 17.6871 16.0031C15.432 15.7805 14.0303 14.5593 13.2412 13.5485C13.186 13.4776 13.097 13.4403 13.0134 13.4458C12.9255 13.4524 12.8462 13.5024 12.8011 13.5799C12.428 14.2257 12.3246 14.9396 12.5031 15.6447C12.6007 16.0295 12.7711 16.3686 12.9689 16.6434C12.874 16.5956 12.7824 16.5357 12.6961 16.4642C12.6167 16.3972 12.5058 16.3845 12.412 16.429C12.3187 16.4747 12.2592 16.5714 12.2592 16.6775C12.2592 17.8882 12.9979 18.6962 13.6877 19.1183C13.5762 19.1045 13.4599 19.0792 13.3425 19.0424C13.2418 19.0111 13.1324 19.0424 13.0627 19.1238C12.993 19.2046 12.9764 19.32 13.0198 19.4184C13.4074 20.2972 14.1418 20.9017 15.0503 21.121C14.257 21.5986 13.1951 21.8328 12.2227 21.7179C12.0968 21.6998 11.9767 21.7817 11.937 21.9059C11.8974 22.0301 11.9494 22.1664 12.0603 22.2301C13.5355 23.0793 14.8692 23.3827 16.0216 23.3827C17.6989 23.3827 18.9934 22.7407 19.7814 22.2038C21.9057 20.7583 23.2297 18.163 23.0453 15.841C23.3857 15.5832 23.895 15.1072 24.2107 14.5955C24.2761 14.4922 24.2643 14.3559 24.1828 14.2647Z" fill="#0A142F"/>
</svg>
